<?xml version="1.0" standalone="no"?>
<!DOCTYPE svg PUBLIC "-//W3C//DTD SVG 20010904//EN"
 "http://www.w3.org/TR/2001/REC-SVG-20010904/DTD/svg10.dtd">
<svg version="1.0" xmlns="http://www.w3.org/2000/svg"
 width="24.000000pt" height="24.000000pt" viewBox="0 0 24.000000 24.000000"
 preserveAspectRatio="xMidYMid meet">
<metadata>
Created by potrace 1.16, written by Peter Selinger 2001-2019
</metadata>
<g transform="translate(0.000000,24.000000) scale(0.004687,-0.004687)"
fill="#c9d1d9" stroke="none">
<path d="M770 4373 c-196 -33 -373 -185 -430 -371 -20 -63 -20 -96 -20 -1436
0 -1500 -3 -1427 58 -1540 34 -65 153 -186 212 -216 24 -12 69 -32 100 -44
l55 -21 1775 -3 c1250 -2 1794 0 1840 8 106 18 216 77 291 157 35 38 76 91 91
119 61 112 58 41 58 1534 0 1493 3 1422 -58 1534 -15 28 -56 81 -91 119 -74
78 -183 138 -285 156 -57 11 -3535 14 -3596 4z m3602 -236 c63 -25 143 -97
176 -161 l27 -51 0 -1365 0 -1365 -27 -51 c-35 -67 -115 -138 -181 -161 -50
-17 -135 -18 -1807 -18 -1672 0 -1757 1 -1807 18 -66 23 -146 94 -181 161
l-27 51 0 1365 0 1365 27 50 c49 93 137 158 238 175 25 4 826 7 1780 6 1660
-1 1737 -2 1782 -19z"/>
<path d="M1224 3509 c-35 -17 -57 -66 -51 -112 5 -38 32 -67 404 -439 l398
-398 -398 -398 c-372 -372 -399 -401 -404 -439 -10 -75 37 -123 120 -123 l42
0 452 453 453 452 0 55 0 55 -453 452 -452 453 -45 -1 c-25 0 -54 -5 -66 -10z"/>
<path d="M2503 1800 c-17 -10 -37 -28 -42 -39 -24 -45 -3 -129 38 -151 13 -6
253 -10 701 -10 448 0 688 4 701 10 44 24 64 114 33 158 -37 53 -21 52 -736
52 -639 0 -664 -1 -695 -20z"/>
</g>
</svg>
